<svg id="Layer_1" data-name="Layer 1" xmlns="http://www.w3.org/2000/svg" viewBox="0 0 624.13 561.52"><defs><style>.cls-1,.cls-10,.cls-2{fill:none;}.cls-1,.cls-10{stroke:#7c7c7c;}.cls-1,.cls-3,.cls-4,.cls-5,.cls-6,.cls-7,.cls-8{stroke-width:2px;}.cls-2{stroke:#b2b2b2;stroke-width:6px;}.cls-3{fill:#c4db80;}.cls-3,.cls-4,.cls-5,.cls-6,.cls-7,.cls-8{stroke:#000;stroke-opacity:0.4;}.cls-4{fill:#e9db80;}.cls-5{fill:#e0e97f;}.cls-6{fill:#f0e17f;}.cls-7{fill:#edc27f;}.cls-8{fill:#dca27f;}.cls-9{fill:#fff;stroke:#fff;}.cls-10{stroke-width:1.9px;}.cls-11,.cls-12,.cls-14,.cls-15{isolation:isolate;}.cls-11,.cls-13{font-size:18.06px;}.cls-11,.cls-13,.cls-14,.cls-15,.cls-16,.cls-18{font-family:Arial;}.cls-14{font-size:10px;}.cls-15{font-size:24.06px;}.cls-16{font-size:12px;}.cls-17{white-space:pre;}.cls-18{font-size:14px;font-weight:700;}</style></defs><title>OSI_Model_v1blockchain</title><text y="1.52"/><rect class="cls-1" x="55.7" y="330.56" width="30.94" height="192" rx="5" ry="5"/><rect class="cls-1" x="56.05" y="43.51" width="30.94" height="257.77" rx="6" ry="6"/><rect class="cls-2" x="86.95" y="320.49" width="360.12" height="212.09" rx="17.64" ry="17.64"/><rect class="cls-2" x="86.94" y="33.51" width="360.12" height="278.17" rx="17.64" ry="17.64"/><rect class="cls-3" x="96.98" y="43.45" width="120" height="60" rx="17.64" ry="17.64"/><rect class="cls-3" x="216.98" y="43.45" width="220" height="60" rx="17.64" ry="17.64"/><rect class="cls-3" x="96.98" y="109.45" width="120" height="60" rx="17.64" ry="17.64"/><rect class="cls-3" x="216.98" y="109.45" width="220" height="60" rx="17.64" ry="17.64"/><rect class="cls-3" x="96.98" y="175.45" width="120" height="60" rx="17.64" ry="17.64"/><rect class="cls-4" x="216.98" y="175.45" width="220" height="60" rx="17.64" ry="17.64"/><rect class="cls-5" x="96.98" y="241.45" width="120" height="60" rx="17.64" ry="17.64"/><rect class="cls-5" x="216.98" y="241.45" width="220" height="60" rx="17.64" ry="17.64"/><rect class="cls-6" x="97.04" y="330.55" width="120" height="60" rx="17.64" ry="17.64"/><rect class="cls-6" x="217.04" y="330.55" width="220" height="60" rx="17.64" ry="17.64"/><rect class="cls-7" x="97.04" y="396.55" width="120" height="60" rx="17.64" ry="17.64"/><rect class="cls-7" x="217.04" y="396.55" width="220" height="60" rx="17.64" ry="17.64"/><rect class="cls-8" x="97.04" y="462.55" width="120" height="60" rx="17.64" ry="17.64"/><rect class="cls-8" x="217.04" y="462.55" width="220" height="60" rx="17.64" ry="17.64"/><path id="bracket-mask" class="cls-9" d="M57.44,191l-0.23-4.08L56.37,183l-1.31-3.23-1.62-2.93-2.16-2.46-2.31-2-2.69-1.16-3-.38,3-.24L49,169.36l2.31-1.69,2.16-2.7,1.62-3,1.31-3.23,0.85-3.85,0.23-4.24" transform="translate(0 1.52)"/><path id="bracket" class="cls-10" d="M56,191l-0.23-4.08L55,183l-1.31-3.23L52,176.83l-2.16-2.46-2.31-2-2.69-1.16-3-.38,3-.24,2.69-1.23,2.31-1.69L52,165l1.62-3L55,158.74l0.85-3.85L56,150.65" transform="translate(0 1.52)"/><path id="bracket-mask-2" data-name="bracket-mask" class="cls-9" d="M57.44,447l-0.23-4.08L56.37,439l-1.31-3.23-1.62-2.93-2.16-2.46-2.31-2-2.69-1.16-3-.38,3-.24L49,425.36l2.31-1.69,2.16-2.7,1.62-3,1.31-3.23,0.85-3.85,0.23-4.24" transform="translate(0 1.52)"/><path id="bracket-2" data-name="bracket" class="cls-10" d="M56,447l-0.23-4.08L55,439l-1.31-3.23L52,432.83l-2.16-2.46-2.31-2-2.69-1.16-3-.38,3-.24,2.69-1.23,2.31-1.69L52,421l1.62-3L55,414.74l0.85-3.85L56,406.65" transform="translate(0 1.52)"/><text class="cls-11" transform="translate(123.35 21.22)">data unit</text><text class="cls-11" transform="translate(303.91 21.22)">layers</text><text class="cls-11" transform="translate(137.91 78.91)">Data</text><text class="cls-11" transform="translate(137.91 144.91)">Data</text><text class="cls-11" transform="translate(137.91 210.91)">Data</text><text class="cls-11" transform="translate(116.32 276.91)">Segments</text><text class="cls-11" transform="translate(124.92 366.02)">Packets</text><text class="cls-11" transform="translate(126.43 432.02)">Frames</text><text class="cls-11" transform="translate(141.99 498.02)">Bits</text><g class="cls-12"><text class="cls-11" transform="translate(280.29 65.52)">Application</text><text class="cls-13" transform="translate(368.65 65.52)"> </text><text class="cls-14" transform="translate(258.06 87.52)">Network Process to<tspan x="86.69" y="0"> </tspan><tspan x="88.92" y="0">Application</tspan></text></g><g class="cls-12"><text class="cls-11" transform="translate(273.77 129.52)">Presentation</text><text class="cls-13" transform="translate(375.18 129.52)"> </text><text class="cls-14" transform="translate(278.61 145.52)">Data Representation</text><text class="cls-13" transform="translate(370.33 145.52)"> </text><text class="cls-14" transform="translate(293.63 161.52)">and Encryption</text></g><g class="cls-12"><text class="cls-11" transform="translate(292.34 197.52)">Session</text><text class="cls-13" transform="translate(356.6 197.52)"> </text><text class="cls-14" transform="translate(271.4 219.52)">Interhost Communication</text><text y="1.52"/></g><g class="cls-12"><text class="cls-11" transform="translate(286.16 261.52)">T<tspan x="10.36" y="0">ransport</tspan></text><text class="cls-13" transform="translate(362.78 261.52)"> </text><text class="cls-14" transform="translate(270 277.52)">End-to-End Connections</text><text class="cls-13" transform="translate(378.95 277.52)"> </text><text class="cls-14" transform="translate(295.85 293.52)">and Reliability</text></g><g class="cls-12"><text class="cls-11" transform="translate(291.41 350.52)">Network</text><text class="cls-13" transform="translate(357.65 350.52)"> </text><text class="cls-14" transform="translate(271.94 366.52)">Path Determination and</text><text class="cls-13" transform="translate(377 366.52)"> </text><text class="cls-14" transform="translate(275.57 382.52)">Logical<tspan x="31.69" y="0"> </tspan><tspan x="33.92" y="0">Addressing (IP)</tspan></text></g><g class="cls-12"><text class="cls-11" transform="translate(286.38 416.52)">Data Link</text><text class="cls-13" transform="translate(362.68 416.52)"> </text><text class="cls-14" transform="translate(279.73 432.52)">Physical<tspan x="37.24" y="0"> </tspan><tspan x="39.46" y="0">Addressing</tspan></text><text class="cls-13" transform="translate(369.22 432.52)"> </text><text class="cls-14" transform="translate(292.25 448.52)">(MAC and LLC)</text></g><g class="cls-12"><text class="cls-11" transform="translate(290.9 482.52)">Physical</text><text class="cls-13" transform="translate(358.16 482.52)"> </text><text class="cls-14" transform="translate(284.45 498.52)">Media, Signal and</text><text class="cls-13" transform="translate(364.5 498.52)"> </text><text class="cls-14" transform="translate(281.97 514.52)">Binary<tspan x="28.34" y="0"> </tspan><tspan x="30.94" y="0">T</tspan><tspan x="36.68" y="0">ransmission</tspan></text></g><text class="cls-15" transform="translate(28 238.71) rotate(-90)">Host Layers</text><text class="cls-15" transform="translate(28 503.75) rotate(-90)">Media Layers</text><text class="cls-16" transform="translate(464 205.45)">P2<tspan x="14.68" y="0">P</tspan><tspan class="cls-17" x="22.46" y="0"> Node Communication</tspan><tspan x="0" y="14.4">(e.g. DEV P2P)</tspan></text><text class="cls-16" transform="translate(460 139.45)">Blockchain<tspan x="0" y="14.4">(e.g. Bitcoin, Ethereum)</tspan></text><text class="cls-16" transform="translate(460 73.45)">Bytecode language</text><text class="cls-18" transform="translate(460 21.22)">Blockchain Components</text><text y="1.52"/></svg>