<?xml version="1.0" encoding="utf-8"?>
<!-- Generator: Adobe Illustrator 19.2.1, SVG Export Plug-In . SVG Version: 6.00 Build 0)  -->
<svg version="1.1" xmlns="http://www.w3.org/2000/svg" xmlns:xlink="http://www.w3.org/1999/xlink" x="0px" y="0px"
	 viewBox="0 0 631.9 539" style="enable-background:new 0 0 631.9 539;" xml:space="preserve">
<style type="text/css">
	.st0{fill:none;}
	.st1{fill:none;stroke:#7C7C7C;stroke-width:2;}
	.st2{fill:none;stroke:#B2B2B2;stroke-width:6;}
	.st3{fill:#C4DB80;stroke:#000000;stroke-width:2;stroke-opacity:0.4;}
	.st4{fill:#E9DB80;stroke:#000000;stroke-width:2;stroke-opacity:0.4;}
	.st5{fill:#E0E97F;stroke:#000000;stroke-width:2;stroke-opacity:0.4;}
	.st6{fill:#F0E17F;stroke:#000000;stroke-width:2;stroke-opacity:0.4;}
	.st7{fill:#EDC27F;stroke:#000000;stroke-width:2;stroke-opacity:0.4;}
	.st8{fill:#DCA27F;stroke:#000000;stroke-width:2;stroke-opacity:0.4;}
	.st9{fill:#FFFFFF;stroke:#FFFFFF;}
	.st10{fill:none;stroke:#7C7C7C;stroke-width:1.9;}
	.st11{font-family:'ArialMT';}
	.st12{font-size:18.062px;}
	.st13{font-size:10px;}
	.st14{font-size:24.062px;}
	.st15{font-size:12px;}
	.st16{font-family:'Arial-BoldMT';}
	.st17{font-size:14px;}
</style>
<g id="Layer_1">
	<rect class="st0" width="476" height="560"/>
	<g>
		<path class="st1" d="M60.7,329h20.9c2.8,0,5,2.2,5,5v182c0,2.8-2.2,5-5,5H60.7c-2.8,0-5-2.2-5-5V334C55.7,331.3,57.9,329,60.7,329
			z"/>
		<path class="st1" d="M62,42H81c3.3,0,6,2.7,6,6v245.8c0,3.3-2.7,6-6,6H62c-3.3,0-6-2.7-6-6V48C56,44.7,58.7,42,62,42z"/>
		<path class="st2" d="M104.6,319h324.8c9.7,0,17.6,7.9,17.6,17.6v176.8c0,9.7-7.9,17.6-17.6,17.6H104.6c-9.7,0-17.6-7.9-17.6-17.6
			V336.6C87,326.9,94.8,319,104.6,319z"/>
		<path class="st2" d="M104.6,32h324.8c9.7,0,17.6,7.9,17.6,17.6v242.9c0,9.7-7.9,17.6-17.6,17.6H104.6c-9.7,0-17.6-7.9-17.6-17.6
			V49.6C86.9,39.9,94.8,32,104.6,32z"/>
	</g>
	<g>
		<g>
			<path class="st3" d="M114.6,41.9h84.7c9.7,0,17.6,7.9,17.6,17.6v24.7c0,9.7-7.9,17.6-17.6,17.6h-84.7c-9.7,0-17.6-7.9-17.6-17.6
				V59.6C97,49.8,104.9,41.9,114.6,41.9z"/>
			<path class="st3" d="M234.6,41.9h184.7c9.7,0,17.6,7.9,17.6,17.6v24.7c0,9.7-7.9,17.6-17.6,17.6H234.6c-9.7,0-17.6-7.9-17.6-17.6
				V59.6C217,49.8,224.9,41.9,234.6,41.9z"/>
			<path class="st3" d="M114.6,107.9h84.7c9.7,0,17.6,7.9,17.6,17.6v24.7c0,9.7-7.9,17.6-17.6,17.6h-84.7c-9.7,0-17.6-7.9-17.6-17.6
				v-24.7C97,115.8,104.9,107.9,114.6,107.9z"/>
			<path class="st3" d="M234.6,107.9h184.7c9.7,0,17.6,7.9,17.6,17.6v24.7c0,9.7-7.9,17.6-17.6,17.6H234.6
				c-9.7,0-17.6-7.9-17.6-17.6v-24.7C217,115.8,224.9,107.9,234.6,107.9z"/>
			<path class="st3" d="M114.6,173.9h84.7c9.7,0,17.6,7.9,17.6,17.6v24.7c0,9.7-7.9,17.6-17.6,17.6h-84.7c-9.7,0-17.6-7.9-17.6-17.6
				v-24.7C97,181.8,104.9,173.9,114.6,173.9z"/>
			<path class="st4" d="M234.6,173.9h184.7c9.7,0,17.6,7.9,17.6,17.6v24.7c0,9.7-7.9,17.6-17.6,17.6H234.6
				c-9.7,0-17.6-7.9-17.6-17.6v-24.7C217,181.8,224.9,173.9,234.6,173.9z"/>
		</g>
		<path class="st5" d="M114.6,239.9h84.7c9.7,0,17.6,7.9,17.6,17.6v24.7c0,9.7-7.9,17.6-17.6,17.6h-84.7c-9.7,0-17.6-7.9-17.6-17.6
			v-24.7C97,247.8,104.9,239.9,114.6,239.9z"/>
		<path class="st5" d="M234.6,239.9h184.7c9.7,0,17.6,7.9,17.6,17.6v24.7c0,9.7-7.9,17.6-17.6,17.6H234.6c-9.7,0-17.6-7.9-17.6-17.6
			v-24.7C217,247.8,224.9,239.9,234.6,239.9z"/>
		<path class="st6" d="M114.7,329h84.7c9.7,0,17.6,7.9,17.6,17.6v24.7c0,9.7-7.9,17.6-17.6,17.6h-84.7c-9.7,0-17.6-7.9-17.6-17.6
			v-24.7C97,336.9,104.9,329,114.7,329z"/>
		<path class="st6" d="M234.7,329h184.7c9.7,0,17.6,7.9,17.6,17.6v24.7c0,9.7-7.9,17.6-17.6,17.6H234.7c-9.7,0-17.6-7.9-17.6-17.6
			v-24.7C217,336.9,224.9,329,234.7,329z"/>
		<path class="st7" d="M114.7,395h84.7c9.7,0,17.6,7.9,17.6,17.6v24.7c0,9.7-7.9,17.6-17.6,17.6h-84.7c-9.7,0-17.6-7.9-17.6-17.6
			v-24.7C97,402.9,104.9,395,114.7,395z"/>
		<path class="st7" d="M234.7,395h184.7c9.7,0,17.6,7.9,17.6,17.6v24.7c0,9.7-7.9,17.6-17.6,17.6H234.7c-9.7,0-17.6-7.9-17.6-17.6
			v-24.7C217,402.9,224.9,395,234.7,395z"/>
		<path class="st8" d="M114.7,461h84.7c9.7,0,17.6,7.9,17.6,17.6v24.7c0,9.7-7.9,17.6-17.6,17.6h-84.7c-9.7,0-17.6-7.9-17.6-17.6
			v-24.7C97,468.9,104.9,461,114.7,461z"/>
		<path class="st8" d="M234.7,461h184.7c9.7,0,17.6,7.9,17.6,17.6v24.7c0,9.7-7.9,17.6-17.6,17.6H234.7c-9.7,0-17.6-7.9-17.6-17.6
			v-24.7C217,468.9,224.9,461,234.7,461z"/>
	</g>
	<g>
		<path id="bracket-mask" class="st9" d="M57.4,191c-0.2-4.1-0.2-4.1-0.2-4.1l-0.8-3.9l-1.3-3.2l-1.6-2.9l-2.2-2.5l-2.3-2l-2.7-1.2
			l-3-0.4l3-0.2l2.7-1.2l2.3-1.7l2.2-2.7l1.6-3l1.3-3.2l0.8-3.9l0.2-4.2"/>
	</g>
	<g>
		<path id="bracket" class="st10" d="M56,191c-0.2-4.1-0.2-4.1-0.2-4.1L55,183l-1.3-3.2l-1.6-2.9l-2.2-2.5l-2.3-2l-2.7-1.2l-3-0.4
			l3-0.2l2.7-1.2l2.3-1.7L52,165l1.6-3l1.3-3.2l0.8-3.9l0.2-4.2"/>
	</g>
	<g>
		<path id="bracket-mask_1_" class="st9" d="M57.4,447c-0.2-4.1-0.2-4.1-0.2-4.1l-0.8-3.9l-1.3-3.2l-1.6-2.9l-2.2-2.5l-2.3-2
			l-2.7-1.2l-3-0.4l3-0.2l2.7-1.2l2.3-1.7l2.2-2.7l1.6-3l1.3-3.2l0.8-3.8l0.2-4.2"/>
	</g>
	<g>
		<path id="bracket_1_" class="st10" d="M56,447c-0.2-4.1-0.2-4.1-0.2-4.1L55,439l-1.3-3.2l-1.6-2.9l-2.2-2.5l-2.3-2l-2.7-1.2
			l-3-0.4l3-0.2l2.7-1.2l2.3-1.7L52,421l1.6-3l1.3-3.2l0.8-3.8l0.2-4.2"/>
	</g>
	<g>
		<text transform="matrix(1 0 0 1 123.3532 19.6949)" class="st11 st12">data unit</text>
		<text transform="matrix(1 0 0 1 303.91 19.6949)" class="st11 st12">layers</text>
		<text transform="matrix(1 0 0 1 137.9056 77.3882)" class="st11 st12">Data</text>
		<text transform="matrix(1 0 0 1 137.9056 143.3882)" class="st11 st12">Data</text>
		<text transform="matrix(1 0 0 1 137.9056 209.388)" class="st11 st12">Data</text>
		<text transform="matrix(1 0 0 1 116.3203 275.388)" class="st11 st12">Segments</text>
		<text transform="matrix(1 0 0 1 124.9156 364.494)" class="st11 st12">Packets</text>
		<text transform="matrix(1 0 0 1 126.4325 430.494)" class="st11 st12">Frames</text>
		<text transform="matrix(1 0 0 1 141.9854 496.494)" class="st11 st12">Bits</text>
		<text transform="matrix(1 0 0 1 280.2924 64)" class="st11 st12">Application</text>
		<text transform="matrix(1 0 0 1 368.6534 64)" class="st11 st12"> </text>
		<text transform="matrix(1 0 0 1 258.0611 86)" class="st11 st13">Network Process to Application</text>
		<text transform="matrix(1 0 0 1 273.7661 128)" class="st11 st12">Presentation</text>
		<text transform="matrix(1 0 0 1 375.1797 128)" class="st11 st12"> </text>
		<text transform="matrix(1 0 0 1 278.6111 144)" class="st11 st13">Data Representation</text>
		<text transform="matrix(1 0 0 1 370.3347 144)" class="st11 st12"> </text>
		<text transform="matrix(1 0 0 1 293.6275 160)" class="st11 st13">and Encryption</text>
		<text transform="matrix(1 0 0 1 292.3441 196)" class="st11 st12">Session</text>
		<text transform="matrix(1 0 0 1 356.6017 196)" class="st11 st12"> </text>
		<text transform="matrix(1 0 0 1 271.4009 218)" class="st11 st13">Interhost Communication</text>
		<text transform="matrix(1 0 0 1 286.1617 260)" class="st11 st12">Transport</text>
		<text transform="matrix(1 0 0 1 362.7841 260)" class="st11 st12"> </text>
		<text transform="matrix(1 0 0 1 269.9954 276)" class="st11 st13">End-to-End Connections</text>
		<text transform="matrix(1 0 0 1 378.9504 276)" class="st11 st12"> </text>
		<text transform="matrix(1 0 0 1 295.8541 292)" class="st11 st13">and Reliability</text>
		<text transform="matrix(1 0 0 1 291.4099 349)" class="st11 st12">Network</text>
		<text transform="matrix(1 0 0 1 357.6519 349)" class="st11 st12"> </text>
		<text transform="matrix(1 0 0 1 271.9412 365)" class="st11 st13">Path Determination and</text>
		<text transform="matrix(1 0 0 1 377.0046 365)" class="st11 st12"> </text>
		<text transform="matrix(1 0 0 1 275.566 381)" class="st11 st13">Logical Addressing (IP)</text>
		<text transform="matrix(1 0 0 1 286.3784 415)" class="st11 st12">Data Link</text>
		<text transform="matrix(1 0 0 1 362.6833 415)" class="st11 st12"> </text>
		<text transform="matrix(1 0 0 1 279.7268 431)" class="st11 st13">Physical Addressing</text>
		<text transform="matrix(1 0 0 1 369.219 431)" class="st11 st12"> </text>
		<text transform="matrix(1 0 0 1 292.2481 447)" class="st11 st13">(MAC and LLC)</text>
		<text transform="matrix(1 0 0 1 290.9028 481)" class="st11 st12">Physical</text>
		<text transform="matrix(1 0 0 1 358.159 481)" class="st11 st12"> </text>
		<text transform="matrix(1 0 0 1 284.446 497)" class="st11 st13">Media, Signal and</text>
		<text transform="matrix(1 0 0 1 364.4998 497)" class="st11 st12"> </text>
		<text transform="matrix(1 0 0 1 281.9673 513)" class="st11 st13">Binary Transmission</text>
		<g>
			<text transform="matrix(6.123234e-17 -1 1 6.123234e-17 28 237.1904)" class="st11 st14">Host Layers</text>
			<text transform="matrix(6.123234e-17 -1 1 6.123234e-17 28 502.2217)" class="st11 st14">Media Layers</text>
		</g>
	</g>
</g>
<g id="Layer_2">
	<text transform="matrix(1 0 0 1 464 203.93)"><tspan x="0" y="0" class="st11 st15">P2P Node Communication</tspan><tspan x="0" y="14.4" class="st11 st15">(e.g. DEV P2P)</tspan></text>
	<text transform="matrix(1 0 0 1 459.9994 137.927)"><tspan x="0" y="0" class="st11 st15">Blockchain</tspan><tspan x="0" y="14.4" class="st11 st15">(e.g. Bitcoin, Ethereum)</tspan></text>
	<text transform="matrix(1 0 0 1 459.9991 71.9273)" class="st11 st15">Bytecode language</text>
	<text transform="matrix(1 0 0 1 459.9997 19.6949)" class="st16 st17">Blockchain Components</text>
</g>
</svg>
